<svg width="153" height="40" viewBox="0 0 153 40" fill="none" xmlns="http://www.w3.org/2000/svg">
<g clip-path="url(#clip0_1_192)">
<path d="M31.2568 22.8136C30.438 21.8709 29.0121 21.7678 28.0663 22.5806C28.0634 22.5831 28.0551 22.5899 28.0418 22.6007C28.0141 22.6233 27.9642 22.6629 27.8938 22.7156C27.7526 22.8213 27.5318 22.9771 27.2445 23.1525C26.6629 23.5076 25.8468 23.9187 24.8884 24.1746C24.1251 24.3785 23.2298 24.3318 22.4287 24.1811C22.0457 24.1091 21.7234 24.0207 21.5024 23.9523C21.3928 23.9184 21.3106 23.8901 21.2611 23.8725C21.2524 23.8694 21.2447 23.8666 21.2381 23.8642C21.2329 23.8623 21.2283 23.8606 21.2244 23.8592L21.2128 23.8548L21.2097 23.8536C20.0482 23.3968 18.7348 23.9646 18.2726 25.1254C17.8091 26.2894 18.3768 27.6086 19.5405 28.0722L20.3798 25.9648C19.5405 28.0722 19.5411 28.0725 19.5417 28.0727L19.5454 28.0741L19.5513 28.0765L19.5661 28.0823L19.6074 28.098C19.6401 28.1106 19.6831 28.1263 19.7356 28.1452C19.8405 28.1826 19.9842 28.2316 20.1611 28.2863C20.513 28.3953 21.0055 28.5299 21.5902 28.6398C22.7246 28.8533 24.3762 29.0074 26.0588 28.5579C27.5462 28.1607 28.7655 27.5393 29.6079 27.025C30.0325 26.7658 30.371 26.528 30.611 26.3485C30.7312 26.2586 30.8274 26.1828 30.8978 26.1257C30.933 26.0971 30.962 26.0731 30.9844 26.0542L31.0132 26.03L31.0239 26.0208L31.0281 26.017L31.0303 26.0153L31.0311 26.0145C31.0316 26.0141 31.0319 26.0137 29.5444 24.3012L31.0319 26.0137C31.9776 25.1921 32.0784 23.7594 31.2568 22.8136Z" fill="#181D14"/>
<path d="M25.3396 14.866C25.3396 13.0237 26.8329 11.5303 28.6749 11.5303C30.5169 11.5303 32.0102 13.0237 32.0102 14.866C32.0102 16.7082 30.5169 18.2016 28.6749 18.2016C26.8329 18.2016 25.3396 16.7082 25.3396 14.866Z" fill="#181D14"/>
<path d="M16.3415 11.5303C14.4995 11.5303 13.0062 13.0237 13.0062 14.866C13.0062 16.7082 14.4995 18.2016 16.3415 18.2016C18.1835 18.2016 19.6768 16.7082 19.6768 14.866C19.6768 13.0237 18.1835 11.5303 16.3415 11.5303Z" fill="#181D14"/>
<path fill-rule="evenodd" clip-rule="evenodd" d="M11.061 0.502513C6.71961 -1.14053 1.00898 1.31933 0.767807 6.79473C0.624803 10.0414 0.510561 14.3986 0.532276 19.8585C0.554502 25.447 0.682032 29.8765 0.822861 33.1389C1.05262 38.4613 6.5211 41.0639 10.877 39.5722C18.9182 36.8188 27.1329 36.8191 35.1741 39.5736C39.5276 41.0647 44.9995 38.4651 45.2378 33.1464C45.3865 29.8232 45.5166 25.3444 45.515 19.8473C45.5137 14.5523 45.3929 10.2023 45.2514 6.91998C45.0144 1.42598 39.2637 -1.10122 34.8798 0.542639C27.0112 3.4931 18.9289 3.48015 11.061 0.502513ZM6.05509 7.02769C6.08257 6.4039 6.40397 5.91207 6.97341 5.59143C7.57561 5.25232 8.39989 5.15474 9.18795 5.45299C18.2566 8.88509 27.6651 8.90077 36.7378 5.49882C37.5335 5.20049 38.3795 5.30068 39.007 5.65718C39.6044 5.9964 39.9366 6.51278 39.9637 7.148C40.1024 10.359 40.2215 14.6334 40.2226 19.8486C40.2242 25.2618 40.0962 29.6609 39.9507 32.9094C39.923 33.5282 39.6042 34.031 39.0433 34.3647C38.4552 34.7145 37.6574 34.8292 36.8889 34.566C27.7363 31.4308 18.3152 31.4305 9.1626 34.5647C8.39299 34.8281 7.59721 34.7127 7.01241 34.3642C6.45489 34.0318 6.13711 33.5306 6.11035 32.9104C5.97248 29.7171 5.84661 25.3565 5.82464 19.8374C5.80326 14.4626 5.91581 10.1901 6.05509 7.02769Z" fill="#181D14"/>
<path d="M63.4212 38.0035C63.4212 38.8868 62.7052 39.6031 61.8217 39.6031H58.8021C57.9187 39.6031 57.2027 38.8868 57.2027 38.0035V9.40795C57.2027 8.52452 57.9187 7.80835 58.8021 7.80835H61.1924C61.9708 7.80835 62.6361 8.36893 62.7683 9.13618L63.2311 11.8206C63.2338 11.8355 63.2468 11.8464 63.2617 11.8464C63.274 11.8464 63.2852 11.8391 63.2903 11.8278C64.6388 8.82261 67.3261 7.15857 70.5217 7.15857C76.1836 7.15857 79.8497 12.032 79.8497 19.6903C79.8497 27.3486 76.1836 32.1757 70.5681 32.1757C67.372 32.1757 64.8694 30.5574 63.4755 27.6899C63.4707 27.68 63.4606 27.6736 63.4497 27.6736C63.4339 27.6736 63.4212 27.6864 63.4212 27.7021V38.0035ZM68.387 26.7917C71.589 26.7917 73.6312 24.0069 73.6312 19.6903C73.6312 15.3274 71.589 12.589 68.387 12.589C65.2311 12.589 63.1892 15.3738 63.1892 19.6903C63.1892 24.0069 65.2311 26.7917 68.387 26.7917Z" fill="#181D14"/>
<path d="M88.2511 32.0829C83.796 32.0829 80.7331 29.4838 80.7331 25.3993C80.7331 21.1292 83.9815 18.3444 90.2933 17.6482L93.9594 17.184C94.9803 17.0912 95.723 16.4414 95.723 15.2346C95.723 12.9603 94.0985 11.6607 91.8247 11.6607C89.7753 11.6607 88.2908 12.8714 87.6377 14.6168C87.2992 15.5209 86.435 16.2401 85.4857 16.0654L82.8382 15.5782C82.0561 15.4343 81.4805 14.7318 81.6423 13.9531C82.486 9.8941 86.3446 7.06577 91.8247 7.06577C97.9968 7.06577 101.802 10.5932 101.802 16.2093V26.0491C101.802 27.0237 102.22 27.5809 102.963 27.5809C103.955 27.5809 105.212 27.6355 105.601 28.5486L105.833 29.0927C106.09 29.6934 105.964 30.4055 105.428 30.7779C104.107 31.6958 102.428 32.1293 100.874 32.1293C98.1362 32.1293 96.2798 30.5513 95.8621 28.4161L95.7286 27.7925C95.7251 27.7773 95.7118 27.7664 95.6963 27.7664C95.6841 27.7664 95.6729 27.7731 95.6673 27.784C94.2265 30.4655 91.5853 32.0829 88.2511 32.0829ZM90.6179 27.5345C93.4953 27.5345 95.6302 25.3065 95.6302 21.9647C95.6302 21.2735 95.0262 20.7378 94.34 20.8205L91.7783 21.1292C88.3905 21.5469 86.9518 22.9394 86.9518 24.7031C86.9518 26.4668 88.4833 27.5345 90.6179 27.5345Z" fill="#181D14"/>
<path d="M120.585 7.20499C124.901 7.20499 127.546 9.98981 127.546 14.6776V29.9264C127.546 30.8099 126.83 31.526 125.947 31.526H122.973C122.09 31.526 121.374 30.8099 121.374 29.9264V16.0236C121.374 13.6565 120.075 12.2641 117.986 12.2641C115.202 12.2641 113.392 14.2135 113.392 17.3232V29.9264C113.392 30.8099 112.676 31.526 111.792 31.526H108.773C107.889 31.526 107.173 30.8099 107.173 29.9264V9.40796C107.173 8.52452 107.889 7.80836 108.773 7.80836H111.069C111.827 7.80836 112.481 8.34076 112.635 9.08324L113.154 11.5883C113.158 11.6035 113.171 11.6143 113.186 11.6143C113.199 11.6143 113.21 11.6074 113.215 11.5966C114.656 8.82258 117.297 7.20499 120.585 7.20499Z" fill="#181D14"/>
<path d="M140.999 32.3149C133.945 32.3149 129.443 27.395 129.443 19.644C129.443 11.9392 133.945 7.06577 140.999 7.06577C148.099 7.06577 152.601 11.9392 152.601 19.644C152.601 27.395 148.099 32.3149 140.999 32.3149ZM140.999 27.0239C144.294 27.0239 146.382 24.2389 146.382 19.644C146.382 15.0954 144.294 12.3569 140.999 12.3569C137.704 12.3569 135.616 15.0954 135.616 19.644C135.616 24.2389 137.704 27.0239 140.999 27.0239Z" fill="#181D14"/>
</g>
<defs>
<clipPath id="clip0_1_192">
<rect width="152.21" height="39.99" fill="white" transform="translate(0.529358)"/>
</clipPath>
</defs>
</svg>
